<?xml version="1.0" encoding="utf-8"?>
<!-- Generator: Adobe Illustrator 16.0.0, SVG Export Plug-In . SVG Version: 6.00 Build 0)  -->
<!DOCTYPE svg PUBLIC "-//W3C//DTD SVG 1.1//EN" "http://www.w3.org/Graphics/SVG/1.1/DTD/svg11.dtd">
<svg version="1.1" id="Layer_1" xmlns="http://www.w3.org/2000/svg" xmlns:xlink="http://www.w3.org/1999/xlink" x="0px" y="0px"
	 width="360px" height="127px" viewBox="0 0 360 127" enable-background="new 0 0 360 127" xml:space="preserve">
<rect fill="none" width="360" height="144"/>
<rect fill="none" width="360" height="144"/>
<path fill="#FFFFFF" d="M7.116,114.801c0,0,40.03-22.516,83.709-25.402c26.413-1.746,48.366,2.943,63.491,6.236
	c12.113,2.639,32.042,9.422,43.714,12.936c39.812,11.984,78.213,9.064,112.483,1.207c7.806-1.789,31.435-10.067,42.369-15.192V5.01
	H7.116V114.801z"/>
<rect fill="none" width="360" height="144"/>
<path fill="#E1251B" d="M76.332,20.909c-2.146,0-4.762,1.769-5.396,3.692l-6.024,23.841l-6.428-23.86
	c-0.526-1.855-3.197-3.673-5.392-3.673l-2.154,0.004c-2.102,0.223-4.491,1.964-5.022,3.688l-6.022,23.841l-6.426-23.86
	c-0.528-1.855-3.199-3.673-5.394-3.673h-8.422l13.18,42.584c0.607,1.838,3.274,3.642,5.384,3.642h2.961
	c2.147,0,4.763-1.77,5.384-3.657l5.643-18.188l5.646,18.203c0.609,1.838,3.274,3.642,5.382,3.642h2.961
	c2.147,0,4.763-1.77,5.387-3.657l13.175-42.569H76.332z"/>
<rect fill="none" width="360" height="144"/>
<rect fill="none" width="360" height="144"/>
<path fill="#E1251B" d="M100.667,27.225c-9.419,0-18.923,6.18-18.923,19.984c0,13.803,9.504,19.981,18.923,19.981
	c2.828,0,5.565-0.376,7.501-1.03c2.752-0.891,7.869-3.257,9.587-6.457c1.899-3.505,0.246-6.483-2.096-7.768
	c-2.43-1.329-5.932-1.077-7.647,2.016c-1.379,2.515-3.85,3.79-7.345,3.79c-3.156,0-6.791-1.028-7.224-8.859h26.146v-1.673
	C119.588,33.405,110.085,27.225,100.667,27.225 M94.069,41.157c1.166-3.688,3.215-5.147,7.074-5.147
	c3.807,0,5.834,1.459,6.996,5.147H94.069z"/>
<path fill="#E1251B" d="M182.273,66.196h12.394V48.518h7.771c2.25,0,4.377-1.882,4.377-3.871v-5.622h-12.146v-9.12h11.617
	c2.253,0,4.381-1.883,4.381-3.872v-5.124h-28.393V66.196L182.273,66.196z"/>
<rect fill="none" width="360" height="144"/>
<path fill="#E1251B" d="M232.822,66.196h31.302v-5.743c0-1.989-2.128-3.872-4.378-3.872h-14.527V48.36h11.326
	c2.252,0,4.381-1.883,4.381-3.872v-5.745h-15.707v-8.217h14.527c2.25,0,4.378-1.882,4.378-3.871v-5.746h-31.302V66.196z"/>
<rect fill="none" width="360" height="144"/>
<rect fill="none" width="360" height="144"/>
<path fill="#E1251B" d="M313.39,20.908h-11.651v45.287h11.651c17.814,0,26.85-7.617,26.85-22.644
	C340.238,28.595,331.204,20.977,313.39,20.908 M314.134,56.881V30.227c9.1,0.293,13.71,4.361,13.71,13.325
	C327.844,52.571,323.232,56.642,314.134,56.881"/>
<path fill="#E1251B" d="M224.37,35.426h-8.741v28.148c0,1.666,1.066,2.622,2.926,2.622h8.741v-28.15
	C227.296,36.381,226.229,35.426,224.37,35.426"/>
<rect fill="none" width="360" height="144"/>
<path fill="#E1251B" d="M224.005,21.056h-8.399v5.196c0,1.685,1.03,2.648,2.826,2.648h8.022v-5.197
	C226.454,22.022,225.802,21.056,224.005,21.056"/>
<rect fill="none" width="360" height="144"/>
<path fill="#E1251B" d="M133.353,35.426h-8.742v28.148c0,1.666,1.066,2.622,2.926,2.622h8.741v-28.15
	C136.277,36.381,135.21,35.426,133.353,35.426"/>
<rect fill="none" width="360" height="144"/>
<path fill="#E1251B" d="M132.987,21.056h-8.4v5.196c0,1.685,1.03,2.648,2.825,2.648h8.024v-5.197
	C135.437,22.022,134.784,21.056,132.987,21.056"/>
<rect fill="none" width="360" height="144"/>
<path fill="#E1251B" d="M164.458,43.601l13.033-21.56l0.731-1.132h-9.765c-3.587,0-5.282,2-5.64,2.969l-8.596,13.766v-13.49
	c0-2.109-2.362-3.245-4.583-3.245h-7.705v45.287h12.288V49.46l8.596,13.766c0.358,0.97,2.053,2.97,5.64,2.97h9.765l-0.73-1.132
	L164.458,43.601z"/>
<rect fill="none" width="360" height="144"/>
<path fill="#E1251B" d="M293.459,55.877h-12.667V24.698c0-1.989-2.129-3.871-4.381-3.871h-8.015v45.285h3.306h8.452h17.683V59.75
	C297.837,57.76,295.708,55.877,293.459,55.877"/>
<rect fill="none" width="360" height="144"/>
<g>
	<defs>
		<path id="SVGID_1_" d="M8.771,6.664h342.458v86.863c-11.127,5.063-33.504,12.897-41.084,14.638
			c-41.144,9.435-77.66,9.048-111.638-1.181c-3.274-0.986-7.245-2.242-11.446-3.573c-11.069-3.507-23.615-7.481-32.393-9.394
			c-12.55-2.731-30.563-6.652-52.293-6.652c-3.776,0-7.667,0.119-11.66,0.382c-37.397,2.474-72.516,19.42-81.944,24.3V6.664z
			 M5.462,3.356v114.272l2.465-1.386c0.397-0.225,40.198-22.364,83.007-25.194c26.499-1.749,48.481,3.036,63.031,6.203
			c8.625,1.879,21.095,5.829,32.096,9.313c4.215,1.334,8.193,2.595,11.493,3.588c17.98,5.412,36.646,8.117,56.296,8.117
			c18.1,0,37.033-2.295,57.035-6.881c7.942-1.82,31.797-10.197,42.701-15.308l0.952-0.446V3.356H5.462z"/>
	</defs>
	<clipPath id="SVGID_2_">
		<use xlink:href="#SVGID_1_"  overflow="visible"/>
	</clipPath>
	
		<linearGradient id="SVGID_3_" gradientUnits="userSpaceOnUse" x1="-1059.1406" y1="1683.4277" x2="-1058.1406" y2="1683.4277" gradientTransform="matrix(349.0762 0 0 349.0762 369726.25 -587583.4375)">
		<stop  offset="0" style="stop-color:#DAA637"/>
		<stop  offset="0.3444" style="stop-color:#FFF8B3"/>
		<stop  offset="0.6362" style="stop-color:#FFF8B3"/>
		<stop  offset="1" style="stop-color:#DAA637"/>
	</linearGradient>
	<rect x="5.462" y="3.356" clip-path="url(#SVGID_2_)" fill="url(#SVGID_3_)" width="349.076" height="114.914"/>
</g>
<rect fill="none" width="360" height="144"/>
<rect fill="none" width="360" height="144"/>
<path fill="#404041" d="M66.806,111.706c0.639,0.481,1.241,0.817,1.807,1.007c0.565,0.188,1.101,0.233,1.608,0.135
	c0.471-0.092,0.833-0.291,1.087-0.602c0.254-0.309,0.344-0.652,0.269-1.035c-0.083-0.422-0.278-0.722-0.584-0.898
	c-0.307-0.177-0.947-0.295-1.918-0.357c-1.332-0.087-2.312-0.348-2.941-0.782c-0.63-0.436-1.036-1.121-1.22-2.06
	c-0.239-1.215-0.02-2.286,0.657-3.215c0.675-0.929,1.672-1.522,2.991-1.781c0.712-0.141,1.406-0.18,2.081-0.116
	c0.676,0.063,1.337,0.229,1.982,0.498l-0.614,2.707c-0.466-0.257-0.927-0.429-1.381-0.519c-0.454-0.086-0.887-0.09-1.299-0.009
	c-0.423,0.083-0.749,0.25-0.974,0.503c-0.226,0.25-0.308,0.532-0.246,0.844c0.062,0.319,0.228,0.551,0.499,0.697
	c0.269,0.144,0.754,0.237,1.453,0.28l0.167,0.013c1.511,0.1,2.538,0.334,3.081,0.702c0.367,0.252,0.673,0.581,0.918,0.985
	s0.419,0.874,0.523,1.406c0.265,1.349,0.028,2.521-0.712,3.515c-0.739,0.996-1.859,1.642-3.36,1.937
	c-0.9,0.177-1.75,0.188-2.547,0.031c-0.798-0.156-1.6-0.488-2.41-0.994L66.806,111.706z"/>
<rect x="72.612" y="105.357" transform="matrix(-0.15 -0.9887 0.9887 -0.15 -15.0121 201.4312)" fill="#404041" width="12.945" height="3.625"/>
<rect fill="none" width="360" height="144"/>
<path fill="#404041" d="M85.202,112.727L84.107,99.83l3.451-0.293l5.52,6.213c0.107,0.127,0.287,0.385,0.54,0.773
	c0.253,0.393,0.534,0.855,0.845,1.397c-0.116-0.528-0.209-1-0.278-1.414c-0.068-0.414-0.116-0.782-0.143-1.104l-0.541-6.37
	l3.433-0.291l1.095,12.897l-3.434,0.291l-5.522-6.24c-0.112-0.127-0.296-0.385-0.548-0.773c-0.253-0.389-0.531-0.85-0.835-1.379
	c0.117,0.534,0.21,1.008,0.279,1.422c0.068,0.415,0.116,0.784,0.143,1.105l0.541,6.369L85.202,112.727z"/>
<rect fill="none" width="360" height="144"/>
<path fill="#404041" d="M110.276,99.369l-0.055,3.854c-0.483-0.541-0.968-0.942-1.454-1.201c-0.485-0.257-1.007-0.389-1.564-0.396
	c-1.031-0.016-1.871,0.319-2.52,1.004c-0.648,0.683-0.979,1.583-0.995,2.695c-0.015,1.038,0.298,1.903,0.94,2.597
	c0.64,0.692,1.464,1.047,2.472,1.061c0.558,0.008,1.083-0.11,1.575-0.354c0.493-0.244,0.988-0.635,1.488-1.169l-0.055,3.862
	c-0.573,0.265-1.143,0.459-1.708,0.587s-1.137,0.188-1.712,0.181c-0.72-0.012-1.383-0.104-1.989-0.281
	c-0.607-0.176-1.162-0.438-1.667-0.787c-0.974-0.662-1.712-1.489-2.214-2.48c-0.502-0.99-0.744-2.104-0.728-3.335
	c0.014-0.989,0.191-1.89,0.529-2.693c0.338-0.808,0.842-1.536,1.511-2.187c0.631-0.622,1.341-1.084,2.128-1.387
	c0.788-0.3,1.661-0.444,2.62-0.431c0.576,0.007,1.144,0.084,1.706,0.228S109.71,99.091,110.276,99.369"/>
<rect fill="none" width="360" height="144"/>
<polygon fill="#404041" points="112.72,111.914 113.467,98.99 121.524,99.456 121.36,102.29 116.797,102.025 116.667,104.27 
	120.969,104.52 120.809,107.289 116.507,107.04 116.381,109.223 120.943,109.484 120.776,112.381 "/>
<rect fill="none" width="360" height="144"/>
<polygon fill="#404041" points="136.058,114.383 137.933,104.677 135.16,104.143 137.235,101.552 141.705,102.415 139.272,115.004 
	"/>
<rect fill="none" width="360" height="144"/>
<rect fill="none" width="360" height="144"/>
<path fill="#404041" d="M147.956,112.436c-0.211,0.008-0.434,0-0.667-0.023c-0.232-0.021-0.47-0.064-0.714-0.126
	c-1.081-0.274-1.882-0.874-2.403-1.8c-0.52-0.926-0.635-1.959-0.345-3.104c0.351-1.389,1.075-2.388,2.17-2.998
	c1.095-0.609,2.384-0.727,3.867-0.352c1.481,0.376,2.554,1.085,3.218,2.129c0.663,1.043,0.82,2.26,0.467,3.648
	c-0.187,0.741-0.555,1.483-1.101,2.225c-0.547,0.74-1.406,1.637-2.576,2.691l-2.441,2.198l-3.549-0.897L147.956,112.436z
	 M148.308,110.389c0.599,0.151,1.113,0.102,1.543-0.154s0.721-0.683,0.871-1.276s0.097-1.108-0.162-1.542
	c-0.258-0.432-0.684-0.725-1.276-0.875c-0.593-0.15-1.107-0.096-1.54,0.162c-0.434,0.258-0.726,0.684-0.876,1.279
	c-0.151,0.594-0.097,1.104,0.163,1.537C147.289,109.949,147.715,110.239,148.308,110.389"/>
<path fill="#404041" d="M165.086,108.513l-0.729,2.542l-4.799-1.375l-0.708,1.526c0.275,0.019,0.549,0.05,0.819,0.097
	c0.271,0.049,0.532,0.106,0.786,0.182c1.285,0.367,2.192,1.037,2.719,2.006c0.527,0.969,0.604,2.103,0.233,3.4
	c-0.396,1.383-1.171,2.342-2.325,2.875c-1.154,0.533-2.535,0.57-4.144,0.109c-0.767-0.219-1.457-0.508-2.072-0.869
	c-0.614-0.357-1.126-0.771-1.535-1.238l1.087-2.944l0.253,0.128c0.18,0.547,0.492,1.027,0.936,1.439
	c0.443,0.411,0.964,0.703,1.564,0.875c0.801,0.229,1.475,0.221,2.02-0.031c0.547-0.252,0.918-0.722,1.115-1.406
	c0.188-0.658,0.105-1.264-0.247-1.818c-0.353-0.555-0.907-0.938-1.662-1.156c-0.507-0.146-0.99-0.192-1.447-0.144
	s-0.899,0.199-1.325,0.445l-0.352-0.369l2.92-6.246L165.086,108.513z"/>
<rect fill="none" width="360" height="144"/>
<rect fill="none" width="360" height="144"/>
<path fill="#404041" d="M170.87,115.034c0.22-0.001,0.444,0.015,0.671,0.05c0.228,0.037,0.462,0.09,0.702,0.164
	c1.068,0.324,1.84,0.96,2.317,1.909c0.476,0.948,0.542,1.989,0.198,3.124c-0.415,1.363-1.185,2.324-2.309,2.88
	c-1.125,0.554-2.421,0.608-3.89,0.163c-1.463-0.445-2.502-1.204-3.115-2.278c-0.615-1.073-0.713-2.296-0.297-3.666
	c0.214-0.705,0.579-1.386,1.094-2.043c0.517-0.655,1.453-1.554,2.808-2.696l2.579-2.145l3.512,1.064L170.87,115.034z
	 M170.424,117.061c-0.586-0.179-1.101-0.146-1.546,0.09c-0.445,0.237-0.757,0.649-0.934,1.235c-0.177,0.581-0.146,1.093,0.092,1.535
	c0.24,0.442,0.652,0.752,1.237,0.931s1.099,0.148,1.544-0.086c0.444-0.233,0.754-0.643,0.931-1.224
	c0.178-0.586,0.148-1.103-0.09-1.547C171.421,117.549,171.009,117.239,170.424,117.061"/>
<polygon fill="#404041" points="182.184,120.186 195.693,125.703 181.614,121.775 "/>
<rect fill="none" width="360" height="144"/>
<path fill="#404041" d="M58.426,112.521c-1.142,0.265-2.315,0.593-3.462,0.943c-1.15,0.356-2.291,0.749-3.419,1.18
	c-2.252,0.867-4.453,1.896-6.495,3.225c1.875-1.559,3.975-2.854,6.147-3.993c1.089-0.565,2.198-1.099,3.324-1.595
	c1.131-0.496,2.257-0.96,3.446-1.385L58.426,112.521z"/>
<rect fill="none" width="360" height="144"/>
<linearGradient id="SVGID_4_" gradientUnits="userSpaceOnUse" x1="37.1992" y1="88.502" x2="306.7158" y2="88.502">
	<stop  offset="0" style="stop-color:#3AAF4A"/>
	<stop  offset="1" style="stop-color:#0E6425"/>
</linearGradient>
<path fill="url(#SVGID_4_)" d="M276.179,102.758c-25.891,5.497-49.392,3.405-79.875-5.185
	c-11.829-3.334-31.776-10.796-43.951-13.577c-15.204-3.471-32.524-5.93-51.535-5.93c-16.73,0-48.123,5.473-63.619,12.339
	C54.546,79.7,77.655,74.854,84.06,73.525c18.738-3.883,54.721-3.342,84.834,5.088c14.225,3.98,27.316,9.004,41.81,12.916
	c19.625,5.297,31.61,6.299,48.026,6.397c19.084,0.117,31.651-1.134,47.985-5.169C296.59,98.114,285.109,100.862,276.179,102.758"/>
<rect fill="none" width="360" height="144"/>
<linearGradient id="SVGID_5_" gradientUnits="userSpaceOnUse" x1="162.5869" y1="83.0723" x2="326.748" y2="83.0723">
	<stop  offset="0" style="stop-color:#0E6425"/>
	<stop  offset="1" style="stop-color:#3AAF4A"/>
</linearGradient>
<path fill="url(#SVGID_5_)" d="M269.072,86.154c-15.1-0.094-25.229-0.577-43.108-3.729c-6.973-1.229-18.829-3.701-27.508-5.882
	c-21.248-5.339-36.948-4.03-35.811-3.848c0.017,0.005,0.033,0.008,0.051,0.012c12.175,2.779,35.081,10.803,46.872,14.271
	c16.669,4.905,48.352,10.127,81.608,3.885c12.243-2.299,31.188-9.814,35.571-12.229C308.944,84.439,288.157,86.271,269.072,86.154"
	/>
<rect fill="none" width="360" height="144"/>
<rect fill="none" width="360" height="144"/>
<path fill="#231F20" d="M335.553,20.445c-0.01-2.938,2.353-5.313,5.297-5.33c2.929-0.016,5.326,2.365,5.338,5.297
	c0.01,2.95-2.37,5.342-5.317,5.345C337.933,25.76,335.563,23.391,335.553,20.445 M345.561,20.422
	c-0.018-2.613-2.135-4.686-4.774-4.67c-2.527,0.014-4.622,2.148-4.612,4.697c0.008,2.598,2.129,4.684,4.748,4.671
	C343.472,25.108,345.576,22.978,345.561,20.422"/>
<rect fill="none" width="360" height="144"/>
<path fill="#231F20" d="M339.855,20.994v2.6h-1.147V17.33c0.931-0.01,1.863-0.183,2.787,0.06c0.774,0.205,1.224,0.694,1.298,1.372
	c0.095,0.874-0.224,1.532-0.93,1.922c-0.061,0.034-0.119,0.067-0.197,0.11c0.609,0.93,1.21,1.848,1.844,2.816
	c-0.438,0-0.835,0.008-1.229-0.008c-0.061-0.003-0.127-0.107-0.172-0.176c-0.447-0.688-0.905-1.372-1.33-2.075
	c-0.16-0.265-0.341-0.397-0.648-0.358C340.045,21.002,339.96,20.994,339.855,20.994 M339.857,20.033
	c0.469,0.069,0.909,0.061,1.34-0.094c0.301-0.108,0.42-0.347,0.454-0.646c0.034-0.3,0.021-0.603-0.257-0.778
	c-0.477-0.299-1.006-0.26-1.537-0.229V20.033L339.857,20.033z"/>
<g opacity="0.6">
	<defs>
		<rect id="SVGID_6_" x="37.199" y="71.205" opacity="0.6" width="269.516" height="34.594"/>
	</defs>
	<clipPath id="SVGID_7_">
		<use xlink:href="#SVGID_6_"  overflow="visible"/>
	</clipPath>
	<g clip-path="url(#SVGID_7_)">
		<g>
			<defs>
				<path id="SVGID_8_" d="M276.179,102.758c-25.891,5.497-49.392,3.405-79.875-5.184c-11.829-3.334-31.777-10.797-43.951-13.578
					c-15.205-3.471-32.524-5.93-51.536-5.93c-16.729,0-48.123,5.473-63.619,12.34C54.546,79.701,77.654,74.852,84.06,73.525
					c18.738-3.883,54.72-3.342,84.834,5.089c14.224,3.979,27.316,9.004,41.809,12.916c19.625,5.297,31.611,6.299,48.025,6.396
					c19.084,0.117,31.652-1.134,47.986-5.169C296.59,98.115,285.109,100.863,276.179,102.758"/>
			</defs>
			<clipPath id="SVGID_9_">
				<use xlink:href="#SVGID_8_"  overflow="visible"/>
			</clipPath>
		</g>
	</g>
</g>
<g>
	<defs>
		<rect id="SVGID_10_" width="360" height="144"/>
	</defs>
	<clipPath id="SVGID_11_">
		<use xlink:href="#SVGID_10_"  overflow="visible"/>
	</clipPath>
	<g clip-path="url(#SVGID_11_)">
		<g>
			<g opacity="0.6">
				<g>
					<g>
						<defs>
							<path id="SVGID_12_" d="M269.072,86.155c-15.1-0.095-25.229-0.578-43.108-3.729c-6.973-1.228-18.83-3.702-27.508-5.883
								c-21.248-5.339-36.948-4.029-35.81-3.846c0.016,0.004,0.033,0.006,0.05,0.01c12.175,2.781,35.081,10.804,46.872,14.273
								c16.67,4.903,48.353,10.127,81.609,3.884c12.243-2.3,31.188-9.816,35.571-12.229
								C308.944,84.439,288.157,86.271,269.072,86.155"/>
						</defs>
						<clipPath id="SVGID_13_">
							<use xlink:href="#SVGID_12_"  overflow="visible"/>
						</clipPath>
					</g>
				</g>
			</g>
		</g>
	</g>
</g>
</svg>
